<svg xmlns="http://www.w3.org/2000/svg" xmlns:xlink="http://www.w3.org/1999/xlink" version="1.1" id="Layer_1" x="0px" y="0px" viewBox="0 0 75 90" enable-background="new 0 0 75 90" xml:space="preserve">
    <g>
        <g><rect x="36.4" y="25.6" fill="#D1D2D3" width="2.2" height="39.2"/></g>
        <g><polygon fill="#D1D2D3" points="36.9,65.7 5.2,46.2 6.4,44.4 38.1,63.8"/></g>
        <g><path fill="none" stroke="#5A5A5D" stroke-width="6.5231" stroke-miterlimit="10" d="M37.5 25.6"/></g>
        <g><polygon fill="#D1D2D3" points="6.4,46.2 5.2,44.4 36.9,24.6 38.1,26.5"/></g>
        <g><rect x="4.7" y="10.1" fill="#D1D2D3" width="2.2" height="35.2"/></g>
        <g><rect x="4.7" y="45.3" fill="#D1D2D3" width="2.2" height="34.6"/></g>
        <g><polygon fill="#D1D2D3" points="36.4,25.9 8.6,8.8 9.7,7 37.5,24"/></g>
        <g><polygon fill="#D1D2D3" points="65.1,43.5 36.4,25.9 37.5,24 66.2,41.6"/></g>
        <g><path fill="#FBB615" d="M5.8 11.7C2.6 11.7 0 9 0 5.8C0 2.6 2.6 0 5.8 0c3.2 0 5.8 2.6 5.8 5.8C11.6 9 9 11.7 5.8 11.7z M5.8 2.5 C4 2.5 2.5 4 2.5 5.8c0 1.8 1.5 3.3 3.3 3.3c1.8 0 3.3-1.5 3.3-3.3C9.1 4 7.6 2.5 5.8 2.5z"/></g>
        <g><polygon fill="#D1D2D3" points="9.7,83 8.6,81.2 36.7,63.7 37.8,65.5"/></g>
        <g><rect x="50.3" y="39.3" transform="matrix(0.5261 0.8504 -0.8504 0.5261 71.8425 -17.1898)" fill="#D1D2D3" width="2.2" height="33.1"/></g>
        <g><path fill="#EF5125" d="M5.8 90C2.6 90 0 87.4 0 84.2c0-3.2 2.6-5.8 5.8-5.8c3.2 0 5.8 2.6 5.8 5.8C11.6 87.4 9 90 5.8 90z M5.8 80.9c-1.8 0-3.3 1.5-3.3 3.3c0 1.8 1.5 3.3 3.3 3.3c1.8 0 3.3-1.5 3.3-3.3C9.1 82.4 7.6 80.9 5.8 80.9z"/></g>
        <g><ellipse fill="#EF5125" cx="37.5" cy="25.6" rx="4.5" ry="4.6"/><path fill="#EF5426" d="M37.5 31.4c-3.2 0-5.8-2.6-5.8-5.8c0-3.2 2.6-5.8 5.8-5.8c3.2 0 5.8 2.6 5.8 5.8 C43.3 28.8 40.7 31.4 37.5 31.4z M37.5 22.3c-1.8 0-3.3 1.5-3.3 3.3c0 1.8 1.5 3.3 3.3 3.3c1.8 0 3.3-1.5 3.3-3.3 C40.8 23.7 39.3 22.3 37.5 22.3z"/></g>
        <g><ellipse fill="#FBB615" cx="37.5" cy="64.7" rx="4.5" ry="4.6"/><path fill="#F9B517" d="M37.5 70.6c-3.2 0-5.8-2.6-5.8-5.8c0-3.2 2.6-5.8 5.8-5.8c3.2 0 5.8 2.6 5.8 5.8 C43.3 67.9 40.7 70.6 37.5 70.6z M37.5 61.4c-1.8 0-3.3 1.5-3.3 3.3c0 1.8 1.5 3.3 3.3 3.3c1.8 0 3.3-1.5 3.3-3.3 C40.8 62.9 39.3 61.4 37.5 61.4z"/></g>
        <g><path fill="#55AFE0" d="M69.2 50.5c-3.2 0-5.8-2.6-5.8-5.8c0-3.2 2.6-5.8 5.8-5.8c3.2 0 5.8 2.6 5.8 5.8 C75 47.9 72.4 50.5 69.2 50.5z M69.2 41.4c-1.8 0-3.3 1.5-3.3 3.3c0 1.8 1.5 3.3 3.3 3.3c1.8 0 3.3-1.5 3.3-3.3 C72.5 42.9 71 41.4 69.2 41.4z"/></g>
        <g><ellipse fill="#55AFE0" cx="5.8" cy="45.3" rx="4.5" ry="4.6"/><path fill="#55AEE0" d="M5.8 51.1c-3.2 0-5.8-2.6-5.8-5.8c0-3.2 2.6-5.8 5.8-5.8c3.2 0 5.8 2.6 5.8 5.8C11.6 48.5 9 51.1 5.8 51.1 z M5.8 42c-1.8 0-3.3 1.5-3.3 3.3c0 1.8 1.5 3.3 3.3 3.3c1.8 0 3.3-1.5 3.3-3.3C9.1 43.5 7.6 42 5.8 42z"/></g>
    </g>
</svg>
