<svg xmlns="http://www.w3.org/2000/svg" xmlns:xlink="http://www.w3.org/1999/xlink" version="1.1" x="0px" y="0px" viewBox="0 0 612 87" enable-background="new 0 0 612 87" xml:space="preserve"><style>.style0{fill:	#FFFFFF;}</style><g><g><g><g><g><g><path d="M60.1 80.6c-3.6-3.4-7.5-10.7-7.5-23.3c0-15.2 5.7-23.1 9.3-26.7c4.8-4.7 11.2-7.1 18.8-7.3 c2.3 0 8.5 0.9 9.6 1.1c0-7.3 0-14.4 0-21.7c5 0 9.3 0 14.4 0c0 27.1 0 54 0 81.3c-3.3 0-7.1 0-11.2 0 c-0.3-1.7-0.8-3.6-1.4-6.2c-2.3 4.7-6.2 8.4-15.2 8.4C66.6 86.4 62.7 83.3 60.1 80.6z M90.7 35.4c-3.3-0.8-6.1-1.6-9-1.6 c-12 0-15.2 11.3-15.2 21.6c0 12.3 3.3 20.8 12.1 20.8c7.5 0 12-5.3 12-10.2C90.8 55.8 90.7 45.9 90.7 35.4z" class="style0"/></g><g><path d="M319.8 57.7c0-35.4 29.4-34.1 30.4-34c7.5 0.2 14.4 1.4 21.9 4.2c0 18.6 0 37.5 0 56.6 c-3.4 0-7.1 0-11.2 0c-0.5-1.9-0.9-3.7-1.6-6.2c-3.3 4.8-10.1 8.2-16.6 8.2C319.8 86.4 319.8 61.3 319.8 57.7z M357.9 35.2 c-2.3-0.5-5.6-1.4-8.4-1.4c-16.2 0-15.7 18-15.7 22.8c0 17.7 7.3 19.5 12.3 19.5c7.5 0 11.7-4.8 11.8-10.1 C358 56 357.9 45.7 357.9 35.2z" class="style0"/></g><g><path d="M446.9 54.9c0-32.6 26.6-31.2 27.7-31.2c25.9 0 25.9 25.7 25.9 30.1c0 5-1.1 32.6-27.7 32.6 C446.6 86.4 446.9 59.4 446.9 54.9z M486.5 54.1c0-4.2-0.2-20.2-12.7-20.2c-11.7 0-12.6 15.7-12.6 20 c0 20.9 8.1 22.2 12.7 22.2C487.4 76 486.5 54.6 486.5 54.1z" class="style0"/></g><g><path d="M116.9 68.7c-0.3-14.1 0-28.4 0-43c4.3 0 8.7 0 13.7 0c0 1.4 0 25.7 0 36.3c0 1.9-0.3 13.6 8.9 13.6 c8.7 0 12.1-7.1 12.1-12.4c0-11 0-35.8 0-37.5c4.8 0 9.2 0 14.1 0c0 9.8 0 19.5 0 29.3c0 9.6 0.2 19.4 0.3 29.3 c-3.4 0-7.3 0-11.3 0c-0.3-1.9-0.6-3.9-1.1-6.8c-3.7 5.1-10.3 9-16.8 9C122.3 86.4 117.1 78 116.9 68.7z" class="style0"/></g><g><path d="M267 51c0.5-8.7 4.8-27.4 28.1-27.4c20.4 0 19.7 15.5 19.7 16.4c0 4.7-1.6 8.7-4.8 11.9 c-8.5 8.4-25.8 8.5-28.4 8.8c0.2 8.7 5.9 14.6 14.4 14.9c4.5 0.2 9.6-1.4 15.1-5c1.4 3.1 3 6 4.3 9.1c-3.9 3.3-12 6-20.4 6.7 C293.1 86.5 265.1 89.2 267 51z M281.4 51.3c18.2 0 20.8-7.9 20.8-10.5c0-5.6-4.2-7.1-7-7.1c-4.3 0-7.5 2.3-9 3.7 C282.8 40.6 281 45.7 281.4 51.3z" class="style0"/></g><g><path d="M0.1 51c0.5-8.7 4.8-27.4 28.1-27.4c20.4 0 19.7 15.5 19.7 16.4c0 4.7-1.6 8.7-4.8 11.9 c-8.5 8.4-25.8 8.5-28.4 8.8c0.2 8.7 5.9 14.6 14.4 14.9c4.5 0.2 9.6-1.4 15.1-5c1.4 3.1 3 6 4.3 9.1c-3.9 3.3-12 6-20.4 6.7 C26.2 86.5-1.8 89.2 0.1 51z M14.5 51.3c18.2 0 20.8-7.9 20.8-10.5c0-5.6-4.2-7.1-7-7.1c-4.3 0-7.5 2.3-9 3.7 C15.9 40.6 14.1 45.7 14.5 51.3z" class="style0"/></g><g><path d="M566.8 80.8c1.4-3.6 2.8-6.7 4-9.8c5.4 2.6 13.5 5.4 16.8 5.4c2.6 0 9.3 0 9.3-7.8 c0-12.3-28.3-6.2-28.3-25.4c0-7.6 3.3-19.7 22.1-19.7c10.7 0 20.5 7.4 21.3 8.1c-2.2 2.3-5 5.9-7.3 8.4 c-1.1-0.8-6.7-6.4-13.8-6.4c-4.3 0-9 1.7-9 7c0 11.2 29 6.8 29 26.1c0 0.2 1.1 20.3-22.4 20.3 C579.4 86.8 569.3 81.9 566.8 80.8z" class="style0"/></g><g><path d="M383.5 71c-0.2-2-0.2-4-0.2-6.2c0-18.9 0-37.8 0-56.8c0-1.6 0-3.1 0-5c4.8 0 9.2 0 14 0 c0 7.3 0 14.6 0 22.3c5.6 0 10.6 0 15.8 0c0 3.9 0 7.1 0 10.7c-5.1 0-15.7 0-15.7 0s-0.3 21.6 0.2 31.8 c0.3 5.3 2.5 7.6 6.7 7.6c3.3 0 6.7-1.4 8.9-2c1.1 2.6 2.2 5.4 3.4 8.2c-3 3.3-12.1 4.7-15.5 4.7 C396.5 86.4 384.7 85 383.5 71z" class="style0"/></g><g><path d="M183.7 79.4c-8.2-8.2-8.4-20.5-8.4-24.3c0-13.3 5.9-21.4 8.5-24.2c7.5-7.4 17.6-7.3 19.4-7.3 c6.7 0 12.7 2.2 17.9 7.3c1.1 1.1 2.2 2.3 3.3 3.7c-2.8 2.3-5.4 4.7-8.4 7.1c-1.9-1.6-6.5-7.1-13.5-7.1 c-11.7 0-13.2 15.8-13.2 20c0 15 7.5 20.6 14.9 20.6c5.3 0 10.9-3.3 14.3-4.7c1.6 2.8 3.3 5.7 5 8.8c-4 3.3-11.2 7-20.5 7 C192.7 86.4 186.5 82.2 183.7 79.4z" class="style0"/></g><g><path d="M510.4 25.6c3.3 0 6.7 0 10.6 0c0.5 2 0.9 4 1.7 7.4c0.9-1.6 5.3-9.5 18.8-9.5 c13.2 0 17.2 9.5 17.6 15.5c0.5 15 0.2 30.1 0.2 45.4c-4.7 0-9.2 0-14 0c-0.2-1.4 0-24 0-34.3c0-1.7 0.5-15.8-8.5-15.8 c-12.6 0-12.3 13.3-12.3 15.4c0 9.9 0 33 0 34.7c-4.8 0-9 0-14 0C510.4 65 510.4 45.6 510.4 25.6z" class="style0"/></g><g><path d="M244.9 84.5c-5 0-9.2 0-14.1 0c0-19.5 0-38.9 0-58.8c3 0 6.5 0 10.4 0c0.5 2.2 0.9 4.5 1.6 7.3 c2.8-4.3 5.9-9.5 15.4-9.5c2.8 0 5.4 0.6 8.2 2.5c-0.8 3.6-1.4 7.1-2.3 11.2c-1.9-0.5-3.9-1.7-8.4-1.7 c-5.6 0-9.9 3.9-10.7 9.9c-0.2 2-0.2 4-0.2 6.2c0 9.5 0 18.8 0 28.2C244.9 81.3 244.9 82.7 244.9 84.5z" class="style0"/></g><g><path d="M437.1 84.5c-4.7 0-8.9 0-13.5 0c0-19.7 0-39.1 0-58.9c4.5 0 8.9 0 13.5 0 C437.1 45.3 437.1 64.7 437.1 84.5z" class="style0"/></g></g></g><g><ellipse cx="430.2" cy="8.1" rx="8.1" ry="8.1" class="style0"/></g></g></g></g></svg>